<svg width="393" height="393" viewBox="0 0 393 393" fill="none" xmlns="http://www.w3.org/2000/svg">
<g clip-path="url(#clip0_150_203)">
<g clip-path="url(#clip1_150_203)">
<g clip-path="url(#clip2_150_203)">
<mask id="mask0_150_203" style="mask-type:luminance" maskUnits="userSpaceOnUse" x="0" y="0" width="393" height="393">
<g clip-path="url(#clip3_150_203)">
<g clip-path="url(#clip4_150_203)">
<g clip-path="url(#clip5_150_203)">
<g clip-path="url(#clip6_150_203)">
<g clip-path="url(#clip7_150_203)">
<g clip-path="url(#clip8_150_203)">
<g clip-path="url(#clip9_150_203)">
<path d="M114.712 227.551L114.491 171.143L133.915 152.003L150.242 176.677L147.167 181V186.69L169.838 161.315L190.14 188.064L187.368 192.095L187.4 197.784L213.216 172.178L235.564 205.024L264.95 191.48L265.038 196.775L234.17 211.258L230.714 205.566L230.477 262.681L114.712 227.551ZM186.337 122.777L133.442 145.199L103.869 175.273L103.923 182.552L109.272 179.965L109.389 233.241L229.651 270.223L230.455 268.109L230.449 269.966L283.395 243.843L283.056 192.119L289.131 189.023L288.252 181.746L254.989 139.844L236.896 148.639L219.867 131.051L203.103 139.587L186.337 122.777Z" fill="black"/>
<path d="M136.56 201.254L136.597 239.337L121.215 233.293L121.549 196.356L136.56 201.254Z" fill="black"/>
</g>
</g>
<path d="M3.8739 146.707L5.46555 142.315L36.9968 141.458L13.3199 120.64L14.9102 116.248L42.9156 141.449L41.5415 145.242L3.8739 146.707Z" fill="white"/>
<path d="M49.8871 116.575L59.7135 99.9918L63.0976 101.998L51.0128 122.391L20.975 104.593L32.8366 84.575L36.222 86.5807L26.6187 102.788L36.3469 108.552L44.6953 94.4646L47.873 96.3482L39.5246 110.436L49.8871 116.575Z" fill="white"/>
<path d="M71.3323 92.8869L68.3638 96.1755L42.4454 72.7822L52.4683 61.6771C53.4986 60.536 54.679 59.7065 56.0095 59.19C57.3457 58.6679 58.7283 58.4096 60.1585 58.4166C61.5817 58.4307 62.9614 58.6847 64.2948 59.1774C65.6296 59.6841 66.8086 60.3985 67.8318 61.3206C69.0221 62.3958 69.9512 63.6407 70.6193 65.0569C71.286 66.4731 71.6313 67.9272 71.6538 69.422C71.6636 70.9182 71.3225 72.3457 70.6306 73.7043L86.22 76.3936L82.8627 80.1116L68.2164 77.6245L62.0239 84.4852L71.3323 92.8869ZM48.3334 72.1295L59.103 81.8493L66.1868 74.0019C67.0023 73.098 67.4613 72.0888 67.5652 70.9744C67.6746 69.8529 67.4837 68.7343 66.9925 67.617C66.4998 66.4872 65.7812 65.4948 64.8352 64.6415C63.8611 63.7628 62.772 63.1733 61.5691 62.8744C60.3508 62.5754 59.1816 62.5628 58.0588 62.8337C56.9359 63.0919 55.9899 63.6477 55.2179 64.5025L48.3334 72.1295Z" fill="white"/>
<path d="M104.023 64.0155C101.76 65.638 99.5751 66.6121 97.4655 66.9419C95.3574 67.2577 93.3559 67.0795 91.4582 66.4086C89.5634 65.725 87.7893 64.685 86.1401 63.2898C84.4979 61.8905 83.0284 60.2848 81.7301 58.4756L71.4363 44.1227L75.0252 41.5485L85.3176 55.9028C86.3071 57.2826 87.4173 58.5303 88.6469 59.6462C89.868 60.7676 91.1761 61.6182 92.567 62.1993C93.9454 62.7775 95.3995 62.9839 96.9279 62.8168C98.4649 62.6442 100.045 61.9747 101.671 60.8083C103.32 59.6265 104.467 58.3282 105.112 56.9134C105.755 55.5112 106.016 54.0529 105.894 52.5385C105.784 51.0268 105.401 49.5194 104.742 48.0176C104.09 46.5101 103.279 45.0785 102.306 43.7212L92.0126 29.3669L95.6128 26.7858L105.905 41.1401C107.279 43.0574 108.36 45.0336 109.147 47.0702C109.942 49.1011 110.328 51.1125 110.304 53.1027C110.28 55.093 109.773 57.0187 108.785 58.877C107.796 60.7353 106.208 62.4491 104.023 64.0155Z" fill="white"/>
<path d="M133.245 13.9487L132.733 18.0626C132.188 17.7903 131.534 17.5839 130.769 17.445C129.996 17.3088 129.168 17.2387 128.285 17.2302C127.397 17.2359 126.463 17.3257 125.482 17.5025C124.515 17.6836 123.548 17.9783 122.582 18.384C120.104 19.4254 118.47 20.6648 117.683 22.102C116.899 23.5267 116.852 25.0566 117.538 26.6917C118.021 27.8398 118.702 28.6188 119.579 29.0273C120.469 29.4413 121.628 29.5929 123.057 29.4834C124.488 29.3838 126.265 29.1536 128.386 28.7943C130.827 28.3423 133.011 28.1192 134.938 28.129C136.865 28.1374 138.507 28.5374 139.863 29.3276C141.232 30.1235 142.322 31.4877 143.133 33.419C143.785 34.9672 144.051 36.4311 143.936 37.8108C143.828 39.1863 143.4 40.4678 142.649 41.6524C141.898 42.8384 140.888 43.9023 139.616 44.8469C138.345 45.7901 136.878 46.6112 135.216 47.3102C133.581 47.9979 131.912 48.4948 130.209 48.8008C128.507 49.1068 126.824 49.2204 125.162 49.1404C123.492 49.0647 121.843 48.7797 120.215 48.2885L120.71 44.0272C121.413 44.336 122.251 44.5774 123.225 44.7501C124.212 44.9297 125.284 45.021 126.442 45.0252C127.604 45.0378 128.813 44.9297 130.066 44.6995C131.324 44.4778 132.558 44.1129 133.767 43.6048C136.064 42.6391 137.671 41.4727 138.59 40.1042C139.512 38.7442 139.637 37.2634 138.965 35.6633C138.457 34.4549 137.692 33.6338 136.671 33.2029C135.655 32.7804 134.353 32.6162 132.765 32.7116C131.172 32.8183 129.273 33.0485 127.068 33.4022C124.667 33.7769 122.589 33.9496 120.836 33.9173C119.083 33.8864 117.617 33.5004 116.435 32.7594C115.249 32.0084 114.3 30.7859 113.587 29.089C112.724 27.0356 112.491 25.0931 112.887 23.2586C113.291 21.4199 114.214 19.7679 115.654 18.3026C117.108 16.8415 118.939 15.647 121.149 14.7193C122.594 14.1129 124.006 13.6975 125.385 13.4757C126.771 13.2413 128.122 13.1697 129.44 13.2595C130.754 13.3424 132.023 13.5711 133.245 13.9487Z" fill="white"/>
<path d="M158.616 39.373L154.285 40.2979L146.995 6.15186L161.237 3.11172C162.741 2.7903 164.183 2.81136 165.562 3.17207C166.952 3.53139 168.224 4.13352 169.377 4.97707C170.533 5.82061 171.501 6.83399 172.284 8.01861C173.079 9.20883 173.62 10.4777 173.908 11.8251C174.304 13.6792 174.262 15.5417 173.783 17.4085C173.312 19.2654 172.434 20.8753 171.153 22.2396C169.862 23.6053 168.211 24.5036 166.2 24.933L155.999 27.11L158.616 39.373ZM152.149 9.07549L155.177 23.2628L165.129 21.1378C166.319 20.8837 167.285 20.3448 168.026 19.5209C168.774 18.6857 169.281 17.671 169.546 16.4751C169.811 15.2793 169.808 14.0413 169.535 12.7585C169.247 11.411 168.698 10.2643 167.888 9.31831C167.077 8.36248 166.144 7.67894 165.091 7.26769C164.028 6.85785 162.935 6.77223 161.809 7.01224L152.149 9.07549Z" fill="white"/>
<path d="M190.591 35.0205L186.161 35.064L185.81 0.151585L200.77 -7.65896e-07C202.308 -0.0154401 203.717 0.290539 204.997 0.920742C206.287 1.54954 207.413 2.39169 208.377 3.44857C209.331 4.50546 210.08 5.69148 210.62 7.00663C211.152 8.3316 211.426 9.68324 211.44 11.0601C211.455 12.6644 211.169 14.1915 210.579 15.6414C209.99 17.0913 209.153 18.3306 208.07 19.3595C206.976 20.3799 205.695 21.0957 204.227 21.5083L212.811 34.7959L207.8 34.8465L199.707 22.3884L190.466 22.481L190.591 35.0205ZM190.279 4.04088L190.425 18.5468L200.997 18.4401C202.214 18.4275 203.268 18.0822 204.158 17.4043C205.058 16.725 205.751 15.8267 206.239 14.708C206.738 13.5796 206.98 12.3795 206.968 11.1051C206.955 9.79412 206.651 8.59407 206.054 7.5049C205.449 6.4073 204.666 5.53709 203.706 4.89706C202.756 4.2458 201.706 3.92579 200.555 3.93702L190.279 4.04088Z" fill="white"/>
<path d="M216.229 35.5819L237.536 4.4409L241.19 5.2241L247.808 42.3514L243.2 41.3633L241.303 30.4926L226.98 27.4216L220.837 36.5701L216.229 35.5819ZM228.559 24.2425L241.055 26.9219L238.29 9.84185L228.559 24.2425Z" fill="white"/>
<path d="M259.516 42.8903L277.283 50.3672L275.757 53.994L253.906 44.7992L267.449 12.6167L288.896 21.6417L287.369 25.2685L270.007 17.9615L265.62 28.3844L280.713 34.7356L279.281 38.1406L264.187 31.7895L259.516 42.8903Z" fill="white"/>
<path d="M292.12 65.2661L282.16 58.3942L301.987 29.6547L311.948 36.5265C315.023 38.6487 317.152 41.0629 318.334 43.769C319.516 46.4751 319.87 49.2696 319.394 52.1525C318.92 55.034 317.77 57.7949 315.948 60.435C313.938 63.3474 311.622 65.492 308.999 66.8689C306.376 68.2458 303.614 68.8101 300.712 68.5631C297.82 68.3202 294.955 67.2212 292.12 65.2661ZM312.267 57.8959C313.756 55.7372 314.677 53.5462 315.03 51.3244C315.395 49.0997 315.145 46.9958 314.278 45.0111C313.418 43.0195 311.896 41.2692 309.714 39.7646L303.399 35.4093L288.041 57.6713L294.354 62.0266C296.568 63.5537 298.769 64.3439 300.955 64.3973C303.15 64.4562 305.221 63.913 307.169 62.7691C309.116 61.6252 310.815 60.0013 312.267 57.8959Z" fill="white"/>
<path d="M315.258 84.0641L312.036 81.0226L336.016 55.6432L339.236 58.6847L315.258 84.0641Z" fill="white"/>
<path d="M330.593 103.727C328.916 101.505 327.887 99.3434 327.507 97.2436C327.14 95.1439 327.268 93.1382 327.893 91.2237C328.53 89.3121 329.525 87.5141 330.879 85.8312C332.238 84.1553 333.807 82.6465 335.584 81.3047L349.682 70.6628L352.341 74.1872L338.244 84.829C336.888 85.8522 335.668 86.9919 334.583 88.2481C333.493 89.4973 332.675 90.8237 332.129 92.2301C331.584 93.6224 331.414 95.0807 331.618 96.605C331.828 98.1363 332.536 99.7013 333.741 101.297C334.964 102.917 336.29 104.031 337.72 104.642C339.138 105.251 340.602 105.476 342.114 105.316C343.622 105.17 345.12 104.749 346.604 104.054C348.094 103.366 349.506 102.52 350.84 101.512L364.936 90.87L367.605 94.4056L353.508 105.047C351.626 106.469 349.676 107.598 347.659 108.434C345.648 109.278 343.648 109.713 341.657 109.738C339.667 109.763 337.73 109.305 335.847 108.361C333.964 107.418 332.213 105.873 330.593 103.727Z" fill="white"/>
<path d="M356.976 155.563L355.254 151.497L379.792 141.102L356.422 138.507L355.362 136.005L369.74 117.371L345.2 127.767L343.472 123.687L375.622 110.068L377.444 114.369L361.497 134.851L387.325 137.696L389.126 141.945L356.976 155.563Z" fill="white"/>
<path d="M45.3957 240.38L46.9874 244.77L23.3232 265.627L54.8403 266.447L56.432 270.837L18.784 269.425L17.4099 265.633L45.3957 240.38Z" fill="white"/>
<path d="M34.5742 294.628L44.4006 311.212L41.0166 313.218L28.9319 292.823L58.9697 275.024L70.8299 295.041L67.4459 297.046L57.8426 280.841L48.1145 286.605L56.4615 300.693L53.2838 302.576L44.9354 288.489L34.5742 294.628Z" fill="white"/>
<path d="M52.2775 326.441L49.3103 323.153L75.2287 299.758L85.2516 310.863C86.2818 312.004 86.9864 313.263 87.3639 314.639C87.7471 316.021 87.8622 317.423 87.7092 318.845C87.5506 320.26 87.1576 321.606 86.5302 322.883C85.8902 324.16 85.0593 325.259 84.0375 326.183C82.8472 327.258 81.5138 328.054 80.0373 328.573C78.5607 329.093 77.0786 329.286 75.588 329.157C74.0988 329.014 72.7135 328.528 71.4334 327.702L67.1665 342.936L63.8092 339.217L67.7785 324.9L61.5859 318.039L52.2775 326.441ZM75.2764 305.682L64.5068 315.402L71.5906 323.251C72.4061 324.155 73.3633 324.715 74.4609 324.931C75.5655 325.154 76.6982 325.078 77.8603 324.704C79.0351 324.329 80.0948 323.716 81.0408 322.862C82.0149 321.984 82.7111 320.96 83.1322 319.793C83.5532 318.612 83.6866 317.45 83.5308 316.306C83.389 315.164 82.9329 314.164 82.1609 313.311L75.2764 305.682Z" fill="white"/>
<path d="M88.7857 359.365C86.5232 357.742 84.8992 355.985 83.9097 354.093C82.9342 352.198 82.4612 350.244 82.4879 348.232C82.5272 346.218 82.944 344.205 83.7343 342.194C84.5329 340.189 85.5814 338.282 86.8797 336.473L97.1721 322.118L100.761 324.691L90.4672 339.045C89.4777 340.425 88.651 341.876 87.9899 343.399C87.3204 344.916 86.933 346.427 86.8305 347.931C86.7253 349.423 86.9962 350.866 87.6446 352.26C88.3015 353.659 89.4426 354.942 91.0679 356.109C92.7171 357.29 94.3144 357.96 95.8625 358.117C97.3966 358.277 98.8619 358.055 100.256 357.455C101.654 356.866 102.958 356.019 104.169 354.913C105.387 353.812 106.483 352.584 107.456 351.227L117.748 336.873L121.349 339.454L111.056 353.808C109.682 355.725 108.156 357.383 106.479 358.782C104.81 360.186 103.029 361.196 101.136 361.813C99.2423 362.429 97.2577 362.566 95.1804 362.225C93.1031 361.884 90.9711 360.931 88.7857 359.365Z" fill="white"/>
<path d="M147.462 354.358L144.165 356.872C143.978 356.292 143.668 355.68 143.232 355.036C142.787 354.389 142.259 353.748 141.647 353.111C141.022 352.479 140.304 351.875 139.491 351.298C138.684 350.734 137.798 350.249 136.833 349.844C134.354 348.803 132.326 348.503 130.747 348.945C129.182 349.381 128.055 350.418 127.369 352.052C126.886 353.2 126.806 354.231 127.127 355.146C127.454 356.072 128.157 357.007 129.234 357.95C130.308 358.903 131.714 360.01 133.456 361.275C135.487 362.701 137.174 364.106 138.516 365.49C139.859 366.873 140.722 368.327 141.105 369.848C141.494 371.384 141.282 373.116 140.471 375.047C139.82 376.595 138.961 377.811 137.894 378.692C136.836 379.578 135.622 380.167 134.249 380.461C132.878 380.754 131.409 380.776 129.846 380.529C128.282 380.281 126.67 379.808 125.008 379.109C123.373 378.421 121.85 377.576 120.439 376.575C119.028 375.573 117.771 374.45 116.665 373.208C115.55 371.962 114.6 370.585 113.811 369.076L117.202 366.449C117.473 367.167 117.887 367.934 118.446 368.752C119.007 369.581 119.692 370.412 120.499 371.243C121.304 372.083 122.226 372.87 123.269 373.604C124.307 374.348 125.432 374.974 126.64 375.482C128.936 376.448 130.896 376.779 132.515 376.477C134.132 376.185 135.278 375.238 135.95 373.638C136.458 372.429 136.509 371.309 136.104 370.279C135.694 369.257 134.9 368.212 133.721 367.143C132.531 366.08 131.037 364.885 129.242 363.556C127.294 362.103 125.718 360.739 124.514 359.466C123.309 358.191 122.558 356.873 122.261 355.509C121.968 354.138 122.178 352.604 122.891 350.908C123.754 348.855 124.98 347.329 126.566 346.327C128.162 345.329 129.988 344.834 132.044 344.838C134.104 344.855 136.239 345.328 138.448 346.255C139.893 346.862 141.177 347.582 142.301 348.411C143.438 349.237 144.435 350.153 145.292 351.158C146.152 352.155 146.877 353.221 147.462 354.358Z" fill="white"/>
<path d="M153.257 387.859L148.926 386.934L156.215 352.788L170.457 355.828C171.961 356.149 173.268 356.756 174.381 357.65C175.503 358.545 176.418 359.613 177.127 360.855C177.835 362.098 178.307 363.418 178.539 364.819C178.777 366.231 178.753 367.609 178.466 368.957C178.07 370.811 177.271 372.494 176.071 374.003C174.882 375.504 173.424 376.616 171.698 377.338C169.961 378.058 168.088 378.202 166.076 377.773L155.875 375.596L153.257 387.859ZM159.725 357.561L156.698 371.747L166.649 373.872C167.839 374.126 168.941 374.028 169.953 373.579C170.976 373.123 171.853 372.403 172.585 371.42C173.316 370.438 173.817 369.305 174.092 368.022C174.38 366.675 174.347 365.404 173.994 364.21C173.643 363.006 173.072 362.001 172.279 361.195C171.477 360.387 170.513 359.863 169.387 359.623L159.725 357.561Z" fill="white"/>
<path d="M190.334 392.777L185.905 392.732L186.255 357.818L201.213 357.968C202.752 357.984 204.154 358.319 205.421 358.973C206.698 359.627 207.807 360.493 208.75 361.568C209.684 362.644 210.407 363.845 210.922 365.171C211.427 366.508 211.673 367.863 211.659 369.242C211.643 370.846 211.325 372.366 210.707 373.803C210.088 375.241 209.228 376.463 208.123 377.471C207.009 378.469 205.715 379.159 204.238 379.541L212.553 393L207.543 392.949L199.702 380.33L190.459 380.237L190.334 392.777ZM190.644 361.797L190.5 376.303L201.072 376.41C202.288 376.422 203.348 376.098 204.251 375.437C205.163 374.776 205.875 373.892 206.387 372.783C206.908 371.666 207.174 370.47 207.187 369.197C207.2 367.886 206.92 366.679 206.346 365.578C205.762 364.468 204.997 363.584 204.051 362.923C203.115 362.253 202.071 361.912 200.92 361.901L190.644 361.797Z" fill="white"/>
<path d="M221.607 391.646L228.281 354.507L231.935 353.724L253.188 384.876L248.58 385.864L242.394 376.726L228.071 379.795L226.217 390.657L221.607 391.646ZM228.208 376.248L240.704 373.57L231.181 359.125L228.208 376.248Z" fill="white"/>
<path d="M266.419 375.645L284.187 368.168L285.712 371.795L263.863 380.99L250.32 348.807L271.765 339.782L273.292 343.409L255.929 350.716L260.315 361.139L275.409 354.788L276.84 358.191L261.748 364.543L266.419 375.645Z" fill="white"/>
<path d="M306.696 357.992L296.736 364.864L276.908 336.124L286.869 329.253C289.944 327.13 292.958 325.998 295.907 325.855C298.857 325.711 301.594 326.372 304.12 327.839C306.645 329.306 308.819 331.361 310.641 334.001C312.651 336.913 313.833 339.84 314.188 342.782C314.543 345.724 314.091 348.505 312.829 351.13C311.576 353.749 309.531 356.036 306.696 357.992ZM306.96 336.541C305.471 334.383 303.75 332.743 301.797 331.626C299.848 330.495 297.792 329.982 295.629 330.086C293.46 330.183 291.285 330.985 289.103 332.491L282.789 336.847L298.148 359.109L304.461 354.754C306.675 353.227 308.195 351.45 309.022 349.425C309.855 347.394 310.084 345.265 309.705 343.037C309.326 340.811 308.411 338.645 306.96 336.541Z" fill="white"/>
<path d="M332.885 336.722L329.665 339.765L305.685 314.386L308.905 311.344L332.885 336.722Z" fill="white"/>
<path d="M351.463 314.159C349.785 316.38 347.989 317.961 346.073 318.903C344.154 319.83 342.189 320.257 340.178 320.18C338.165 320.09 336.164 319.626 334.174 318.786C332.189 317.938 330.308 316.844 328.531 315.502L314.434 304.86L317.093 301.336L331.191 311.977C332.547 313.001 333.977 313.862 335.483 314.561C336.983 315.267 338.484 315.691 339.986 315.832C341.474 315.973 342.923 315.738 344.333 315.124C345.747 314.502 347.058 313.392 348.263 311.796C349.485 310.177 350.194 308.596 350.389 307.052C350.587 305.522 350.402 304.053 349.835 302.644C349.28 301.232 348.466 299.908 347.39 298.67C346.32 297.425 345.119 296.3 343.785 295.293L329.689 284.651L332.357 281.116L346.455 291.758C348.337 293.179 349.957 294.744 351.314 296.455C352.677 298.158 353.642 299.963 354.212 301.87C354.782 303.778 354.871 305.767 354.48 307.836C354.089 309.904 353.084 312.013 351.463 314.159Z" fill="white"/>
<path d="M380.611 256.578L378.889 260.645L354.349 250.25L368.744 268.843L367.684 271.345L344.296 273.98L368.835 284.376L367.107 288.455L334.957 274.836L336.779 270.536L362.586 267.741L346.661 247.208L348.461 242.96L380.611 256.578Z" fill="white"/>
<path d="M5.20166 201.066C5.20166 193.648 11.2146 187.634 18.6324 187.634C26.0503 187.634 32.0646 193.647 32.0646 201.066C32.0646 208.484 26.0517 214.498 18.6324 214.497C11.2146 214.497 5.20026 208.484 5.20166 201.066Z" fill="white"/>
<path d="M361.863 201.066C361.863 193.648 367.876 187.634 375.294 187.634C382.712 187.634 388.726 193.647 388.726 201.066C388.726 208.484 382.713 214.498 375.294 214.497C367.876 214.497 361.862 208.484 361.863 201.066Z" fill="white"/>
</g>
</g>
</g>
</g>
</g>
</mask>
<g mask="url(#mask0_150_203)">
<path d="M393 0H0V393H393V0Z" fill="url(#paint0_linear_150_203)"/>
</g>
<mask id="mask1_150_203" style="mask-type:luminance" maskUnits="userSpaceOnUse" x="0" y="0" width="393" height="393">
<g clip-path="url(#clip10_150_203)">
<g clip-path="url(#clip11_150_203)">
<g clip-path="url(#clip12_150_203)">
<g clip-path="url(#clip13_150_203)">
<g clip-path="url(#clip14_150_203)">
<g clip-path="url(#clip15_150_203)">
<path d="M114.712 227.551L114.491 171.143L133.915 152.003L150.242 176.677L147.167 181V186.69L169.838 161.315L190.14 188.064L187.368 192.095L187.4 197.784L213.216 172.178L235.564 205.024L264.95 191.48L265.038 196.775L234.17 211.258L230.714 205.566L230.477 262.681L114.712 227.551ZM186.337 122.777L133.442 145.199L103.869 175.273L103.923 182.552L109.272 179.965L109.389 233.241L229.651 270.223L230.455 268.109L230.449 269.966L283.395 243.843L283.056 192.119L289.131 189.023L288.252 181.746L254.989 139.844L236.896 148.639L219.867 131.051L203.103 139.587L186.337 122.777Z" fill="white"/>
<path d="M136.56 201.254L136.597 239.337L121.215 233.293L121.549 196.356L136.56 201.254Z" fill="white"/>
</g>
</g>
</g>
</g>
</g>
</g>
</mask>
<g mask="url(#mask1_150_203)">
<path d="M393 0H0V393H393V0Z" fill="url(#paint1_linear_150_203)"/>
</g>
</g>
</g>
</g>
<defs>
<linearGradient id="paint0_linear_150_203" x1="0" y1="196.5" x2="393" y2="196.5" gradientUnits="userSpaceOnUse">
<stop stop-color="#FFA62E"/>
<stop offset="1" stop-color="#F71B3D"/>
</linearGradient>
<linearGradient id="paint1_linear_150_203" x1="0" y1="196.5" x2="393" y2="196.5" gradientUnits="userSpaceOnUse">
<stop stop-color="#FFA62E"/>
<stop offset="1" stop-color="#F71B3D"/>
</linearGradient>
<clipPath id="clip0_150_203">
<rect width="393" height="393" fill="white"/>
</clipPath>
<clipPath id="clip1_150_203">
<rect width="393" height="393" fill="white"/>
</clipPath>
<clipPath id="clip2_150_203">
<rect width="393" height="393" fill="white"/>
</clipPath>
<clipPath id="clip3_150_203">
<rect width="393" height="393" fill="white"/>
</clipPath>
<clipPath id="clip4_150_203">
<rect width="393" height="393" fill="white"/>
</clipPath>
<clipPath id="clip5_150_203">
<rect width="393" height="393" fill="white"/>
</clipPath>
<clipPath id="clip6_150_203">
<rect width="393" height="393" fill="white"/>
</clipPath>
<clipPath id="clip7_150_203">
<rect width="393" height="393" fill="white"/>
</clipPath>
<clipPath id="clip8_150_203">
<rect width="185.262" height="147.446" fill="white" transform="translate(103.869 122.777)"/>
</clipPath>
<clipPath id="clip9_150_203">
<rect width="185.262" height="147.446" fill="white" transform="translate(103.869 122.777)"/>
</clipPath>
<clipPath id="clip10_150_203">
<rect width="393" height="393" fill="white"/>
</clipPath>
<clipPath id="clip11_150_203">
<rect width="393" height="393" fill="white"/>
</clipPath>
<clipPath id="clip12_150_203">
<rect width="393" height="393" fill="white"/>
</clipPath>
<clipPath id="clip13_150_203">
<rect width="393" height="393" fill="white"/>
</clipPath>
<clipPath id="clip14_150_203">
<rect width="185.262" height="147.446" fill="white" transform="translate(103.869 122.777)"/>
</clipPath>
<clipPath id="clip15_150_203">
<rect width="185.262" height="147.446" fill="white" transform="translate(103.869 122.777)"/>
</clipPath>
</defs>
</svg>
