<svg width="651" height="651" viewBox="0 0 651 651" fill="none" xmlns="http://www.w3.org/2000/svg">
<g clip-path="url(#clip0_150_116)">
<g clip-path="url(#clip1_150_116)">
<g clip-path="url(#clip2_150_116)">
<mask id="mask0_150_116" style="mask-type:luminance" maskUnits="userSpaceOnUse" x="0" y="0" width="651" height="651">
<g clip-path="url(#clip3_150_116)">
<g clip-path="url(#clip4_150_116)">
<g clip-path="url(#clip5_150_116)">
<g clip-path="url(#clip6_150_116)">
<g clip-path="url(#clip7_150_116)">
<g clip-path="url(#clip8_150_116)">
<g clip-path="url(#clip9_150_116)">
<path d="M190.019 376.936L189.652 283.496L221.829 251.792L248.875 292.663L243.781 299.825V309.25L281.335 267.216L314.965 311.526L310.373 318.203L310.426 327.627L353.19 285.21L390.209 339.619L438.887 317.185L439.032 325.956L387.9 349.946L382.175 340.518L381.782 435.128L190.019 376.936ZM308.665 203.379L221.046 240.52L172.058 290.337L172.147 302.395L181.007 298.11L181.202 386.361L380.415 447.621L381.746 444.12L381.736 447.195L469.441 403.922L468.88 318.242L478.942 313.115L477.485 301.061L422.386 231.65L392.416 246.219L364.207 217.085L336.438 231.224L308.665 203.379Z" fill="black"/>
<path d="M226.209 333.376L226.272 396.46L200.792 386.447L201.344 325.262L226.209 333.376Z" fill="black"/>
</g>
</g>
<path d="M6.41699 243.018L9.05354 235.743L61.2847 234.323L22.0642 199.838L24.6985 192.563L71.0892 234.309L68.813 240.591L6.41699 243.018Z" fill="white"/>
<path d="M82.6375 193.105L98.9148 165.635L104.52 168.958L84.5021 202.74L34.7448 173.257L54.3934 140.098L60.0013 143.42L44.0936 170.267L60.2082 179.815L74.0373 156.479L79.3011 159.6L65.472 182.936L82.6375 193.105Z" fill="white"/>
<path d="M118.161 153.866L113.244 159.314L70.3103 120.563L86.9131 102.167C88.6197 100.277 90.575 98.9032 92.7791 98.0476C94.9925 97.1827 97.2826 96.7549 99.6518 96.7665C102.009 96.7897 104.295 97.2106 106.504 98.0266C108.715 98.866 110.668 100.049 112.363 101.577C114.334 103.358 115.873 105.42 116.98 107.766C118.084 110.112 118.656 112.521 118.694 114.997C118.71 117.475 118.145 119.84 116.999 122.09L142.822 126.545L137.261 132.704L113 128.584L102.742 139.949L118.161 153.866ZM80.0637 119.482L97.9034 135.582L109.638 122.583C110.988 121.086 111.749 119.414 111.921 117.568C112.102 115.711 111.786 113.858 110.972 112.007C110.156 110.135 108.966 108.491 107.399 107.078C105.785 105.622 103.981 104.646 101.988 104.151C99.9703 103.655 98.0336 103.635 96.1736 104.083C94.3136 104.511 92.7466 105.432 91.4678 106.848L80.0637 119.482Z" fill="white"/>
<path d="M172.313 106.041C168.565 108.729 164.945 110.342 161.45 110.889C157.958 111.412 154.643 111.116 151.499 110.005C148.361 108.873 145.422 107.15 142.69 104.839C139.97 102.521 137.535 99.8611 135.385 96.8642L118.333 73.0887L124.278 68.8246L141.327 92.6024C142.967 94.8879 144.806 96.9548 146.842 98.8032C148.865 100.661 151.032 102.07 153.336 103.032C155.619 103.99 158.028 104.332 160.56 104.055C163.106 103.769 165.724 102.66 168.416 100.728C171.148 98.7707 173.047 96.62 174.117 94.2764C175.182 91.9538 175.614 89.5381 175.412 87.0294C175.231 84.5254 174.596 82.0283 173.503 79.5406C172.424 77.0435 171.08 74.672 169.469 72.4237L152.418 48.646L158.381 44.3703L175.431 68.1481C177.707 71.324 179.497 74.5976 180.801 77.9712C182.117 81.3355 182.757 84.6672 182.717 87.9641C182.678 91.2609 181.838 94.4508 180.201 97.5291C178.562 100.607 175.933 103.446 172.313 106.041Z" fill="white"/>
<path d="M220.719 23.1059L219.871 29.9204C218.968 29.4694 217.885 29.1276 216.618 28.8974C215.337 28.6719 213.965 28.5557 212.503 28.5417C211.031 28.551 209.485 28.6998 207.86 28.9928C206.258 29.2927 204.656 29.7809 203.056 30.4529C198.95 32.178 196.244 34.231 194.94 36.6118C193.642 38.9717 193.563 41.5059 194.7 44.2145C195.5 46.1164 196.628 47.4068 198.081 48.0833C199.555 48.7692 201.475 49.0203 203.842 48.839C206.214 48.6739 209.157 48.2926 212.67 47.6974C216.713 46.9487 220.331 46.5791 223.523 46.5953C226.715 46.6093 229.436 47.2719 231.682 48.5809C233.948 49.8992 235.755 52.1591 237.099 55.3583C238.178 57.9227 238.619 60.3477 238.429 62.6332C238.25 64.9117 237.541 67.0344 236.297 68.9967C235.053 70.9613 233.379 72.7237 231.272 74.2884C229.166 75.8508 226.736 77.2109 223.983 78.3688C221.275 79.508 218.51 80.3311 215.69 80.8379C212.87 81.3448 210.082 81.5331 207.33 81.4006C204.563 81.275 201.831 80.8031 199.134 79.9893L199.955 72.9306C201.119 73.4421 202.507 73.842 204.121 74.128C205.755 74.4256 207.532 74.5767 209.45 74.5837C211.375 74.6046 213.377 74.4256 215.453 74.0443C217.536 73.6769 219.58 73.0724 221.584 72.2308C225.388 70.6312 228.05 68.6991 229.573 66.4322C231.1 64.1793 231.307 61.7264 230.194 59.0759C229.352 57.0741 228.085 55.714 226.395 55.0002C224.711 54.3004 222.554 54.0284 219.924 54.1865C217.285 54.3632 214.139 54.7445 210.487 55.3304C206.509 55.9511 203.068 56.2371 200.164 56.1836C197.26 56.1325 194.83 55.4931 192.873 54.2655C190.908 53.0216 189.336 50.9966 188.155 48.1856C186.725 44.7842 186.339 41.5664 186.995 38.5276C187.665 35.4818 189.195 32.7453 191.58 30.318C193.989 27.8977 197.02 25.9191 200.682 24.3823C203.075 23.3779 205.414 22.6897 207.699 22.3223C209.994 21.9341 212.233 21.8155 214.416 21.9643C216.592 22.1015 218.694 22.4804 220.719 23.1059Z" fill="white"/>
<path d="M262.746 65.2209L255.571 66.7531L243.495 10.1905L267.087 5.15453C269.579 4.62211 271.967 4.65698 274.252 5.25451C276.554 5.84971 278.661 6.84713 280.572 8.24446C282.485 9.64178 284.089 11.3204 285.387 13.2827C286.703 15.2543 287.6 17.3561 288.077 19.5881C288.732 22.6595 288.663 25.7447 287.87 28.837C287.089 31.913 285.636 34.5797 283.513 36.8396C281.374 39.1019 278.64 40.5899 275.308 41.3013L258.41 44.9074L262.746 65.2209ZM252.032 15.0335L257.05 38.5346L273.534 35.0145C275.505 34.5937 277.105 33.7009 278.333 32.3361C279.572 30.9527 280.411 29.2718 280.851 27.2909C281.29 25.31 281.285 23.2593 280.832 21.1343C280.355 18.9023 279.446 17.0027 278.105 15.4357C276.761 13.8524 275.215 12.7201 273.471 12.0389C271.711 11.36 269.9 11.2181 268.035 11.6157L252.032 15.0335Z" fill="white"/>
<path d="M315.712 58.0111L308.374 58.0832L307.793 0.251106L332.573 5.77827e-06C335.121 -0.0255692 337.455 0.481281 339.576 1.52521C341.712 2.56681 343.577 3.96181 345.174 5.71253C346.755 7.46326 347.994 9.42788 348.89 11.6064C349.771 13.8012 350.224 16.0402 350.247 18.321C350.273 20.9785 349.799 23.5081 348.822 25.9098C347.846 28.3115 346.46 30.3645 344.665 32.0687C342.854 33.759 340.731 34.9448 338.299 35.6283L352.519 57.6391L344.219 57.7228L330.813 37.0861L315.505 37.2395L315.712 58.0111ZM315.196 6.69368L315.437 30.7226L332.949 30.5459C334.965 30.5249 336.711 29.953 338.185 28.83C339.676 27.7047 340.824 26.2167 341.633 24.3637C342.459 22.4944 342.861 20.5065 342.84 18.3954C342.819 16.2239 342.314 14.236 341.326 12.4318C340.324 10.6136 339.027 9.17213 337.437 8.11193C335.863 7.03313 334.123 6.50303 332.217 6.52163L315.196 6.69368Z" fill="white"/>
<path d="M358.18 58.9411L393.476 7.35631L399.528 8.65366L410.49 70.1546L402.857 68.5178L399.716 50.5106L375.99 45.4235L365.813 60.5779L358.18 58.9411ZM378.605 40.1574L399.305 44.5958L394.725 16.3029L378.605 40.1574Z" fill="white"/>
<path d="M429.886 71.0474L459.315 83.4326L456.788 89.4404L420.592 74.2093L443.026 20.8994L478.552 35.8492L476.023 41.857L447.263 29.753L439.997 47.0185L464.998 57.5391L462.626 63.1796L437.623 52.6589L429.886 71.0474Z" fill="white"/>
<path d="M483.893 108.113L467.395 96.7293L500.238 49.1226L516.738 60.5058C521.832 64.0212 525.359 68.0202 527.317 72.5028C529.275 76.9854 529.861 81.6145 529.072 86.39C528.287 91.1633 526.382 95.7365 523.364 100.11C520.035 104.934 516.199 108.487 511.853 110.768C507.508 113.048 502.932 113.983 498.127 113.574C493.335 113.172 488.589 111.351 483.893 108.113ZM517.266 95.9039C519.733 92.3281 521.258 88.6988 521.844 85.0183C522.448 81.3332 522.035 77.848 520.598 74.5604C519.173 71.2613 516.652 68.362 513.037 65.8696L502.577 58.6551L477.137 95.5319L487.594 102.746C491.261 105.276 494.907 106.585 498.529 106.673C502.165 106.771 505.595 105.871 508.822 103.976C512.046 102.081 514.862 99.3914 517.266 95.9039Z" fill="white"/>
<path d="M522.221 139.251L516.885 134.213L556.607 92.1723L561.941 97.2106L522.221 139.251Z" fill="white"/>
<path d="M547.623 171.822C544.845 168.142 543.141 164.561 542.511 161.083C541.904 157.605 542.116 154.282 543.15 151.111C544.206 147.944 545.854 144.966 548.098 142.178C550.348 139.402 552.948 136.903 555.891 134.68L579.243 117.052L583.649 122.89L560.297 140.518C558.051 142.213 556.031 144.101 554.233 146.182C552.427 148.251 551.071 150.448 550.167 152.778C549.265 155.084 548.984 157.5 549.321 160.025C549.669 162.562 550.841 165.154 552.838 167.798C554.864 170.481 557.061 172.327 559.43 173.338C561.778 174.347 564.203 174.719 566.707 174.454C569.206 174.212 571.687 173.515 574.145 172.364C576.614 171.225 578.953 169.823 581.162 168.153L604.512 150.525L608.934 156.382L585.581 174.01C582.464 176.365 579.234 178.234 575.893 179.62C572.561 181.018 569.248 181.738 565.951 181.78C562.655 181.822 559.446 181.062 556.326 179.499C553.208 177.937 550.307 175.377 547.623 171.822Z" fill="white"/>
<path d="M591.326 257.689L588.474 250.954L629.122 233.735L590.408 229.436L588.653 225.29L612.47 194.423L571.82 211.645L568.958 204.886L622.214 182.326L625.232 189.45L598.815 223.379L641.6 228.092L644.583 235.13L591.326 257.689Z" fill="white"/>
<path d="M75.1975 398.186L77.834 405.459L38.6345 440.009L90.8424 441.366L93.4789 448.639L31.1155 446.3L28.8393 440.018L75.1975 398.186Z" fill="white"/>
<path d="M57.2717 488.048L73.5491 515.52L67.9435 518.842L47.9252 485.058L97.6826 455.574L117.329 488.731L111.723 492.054L95.8156 465.209L79.701 474.758L93.5278 498.094L88.264 501.214L74.4349 477.878L57.2717 488.048Z" fill="white"/>
<path d="M86.5969 540.746L81.6819 535.299L124.615 496.546L141.218 514.941C142.925 516.831 144.092 518.917 144.717 521.195C145.352 523.485 145.543 525.808 145.289 528.163C145.027 530.507 144.376 532.737 143.336 534.852C142.276 536.968 140.9 538.789 139.207 540.318C137.235 542.099 135.027 543.418 132.581 544.278C130.135 545.138 127.68 545.459 125.211 545.245C122.744 545.008 120.449 544.203 118.329 542.834L111.261 568.07L105.699 561.908L112.274 538.193L102.016 526.829L86.5969 540.746ZM124.694 506.359L106.855 522.46L118.589 535.461C119.94 536.959 121.525 537.886 123.344 538.244C125.173 538.614 127.05 538.489 128.975 537.868C130.921 537.247 132.676 536.231 134.243 534.817C135.857 533.362 137.01 531.667 137.707 529.733C138.405 527.777 138.626 525.852 138.368 523.957C138.133 522.065 137.377 520.409 136.099 518.996L124.694 506.359Z" fill="white"/>
<path d="M147.073 595.284C143.325 592.596 140.635 589.685 138.995 586.551C137.38 583.412 136.596 580.176 136.64 576.842C136.705 573.505 137.396 570.171 138.705 566.84C140.028 563.52 141.765 560.36 143.915 557.363L160.964 533.585L166.909 537.847L149.858 561.625C148.219 563.91 146.849 566.314 145.754 568.837C144.645 571.35 144.004 573.852 143.834 576.344C143.659 578.816 144.108 581.206 145.182 583.515C146.27 585.833 148.161 587.958 150.853 589.89C153.585 591.847 156.231 592.956 158.795 593.217C161.336 593.482 163.764 593.115 166.072 592.119C168.388 591.145 170.548 589.741 172.555 587.909C174.573 586.086 176.388 584.052 178 581.803L195.049 558.026L201.013 562.301L183.963 586.079C181.687 589.255 179.16 592.001 176.381 594.319C173.617 596.644 170.667 598.318 167.53 599.339C164.394 600.359 161.106 600.587 157.665 600.022C154.224 599.457 150.693 597.878 147.073 595.284Z" fill="white"/>
<path d="M244.269 586.99L238.808 591.154C238.499 590.194 237.985 589.181 237.262 588.113C236.525 587.042 235.65 585.979 234.637 584.923C233.602 583.877 232.412 582.877 231.065 581.922C229.729 580.987 228.262 580.183 226.662 579.513C222.556 577.788 219.196 577.291 216.581 578.023C213.988 578.746 212.121 580.464 210.984 583.17C210.185 585.072 210.052 586.779 210.585 588.295C211.126 589.829 212.291 591.378 214.074 592.94C215.853 594.519 218.183 596.353 221.068 598.448C224.432 600.81 227.227 603.138 229.45 605.43C231.675 607.72 233.105 610.129 233.739 612.649C234.383 615.193 234.032 618.062 232.688 621.261C231.61 623.825 230.187 625.839 228.42 627.299C226.667 628.766 224.655 629.743 222.382 630.228C220.11 630.714 217.678 630.752 215.088 630.342C212.498 629.931 209.827 629.147 207.074 627.989C204.365 626.85 201.843 625.451 199.506 623.793C197.169 622.133 195.086 620.273 193.254 618.215C191.408 616.151 189.834 613.87 188.527 611.37L194.144 607.018C194.593 608.208 195.279 609.478 196.204 610.833C197.134 612.207 198.269 613.584 199.606 614.96C200.938 616.351 202.466 617.655 204.193 618.871C205.914 620.103 207.776 621.14 209.778 621.982C213.581 623.581 216.827 624.13 219.51 623.63C222.189 623.146 224.086 621.577 225.2 618.927C226.041 616.925 226.125 615.069 225.455 613.363C224.776 611.67 223.46 609.938 221.507 608.169C219.536 606.407 217.062 604.428 214.088 602.226C210.861 599.82 208.25 597.56 206.255 595.451C204.261 593.34 203.017 591.157 202.524 588.897C202.038 586.625 202.387 584.084 203.568 581.276C204.998 577.874 207.027 575.347 209.655 573.687C212.298 572.034 215.323 571.213 218.729 571.22C222.142 571.248 225.678 572.031 229.338 573.568C231.73 574.573 233.858 575.765 235.72 577.139C237.603 578.506 239.254 580.025 240.675 581.689C242.1 583.34 243.3 585.107 244.269 586.99Z" fill="white"/>
<path d="M253.869 642.484L246.694 640.951L258.768 584.389L282.36 589.425C284.852 589.957 287.017 590.961 288.86 592.443C290.718 593.926 292.234 595.695 293.408 597.753C294.582 599.81 295.363 601.998 295.747 604.319C296.142 606.658 296.103 608.941 295.626 611.173C294.97 614.244 293.647 617.032 291.66 619.531C289.69 622.019 287.275 623.86 284.415 625.055C281.539 626.248 278.435 626.487 275.103 625.776L258.205 622.17L253.869 642.484ZM264.583 592.296L259.568 615.795L276.052 619.315C278.023 619.736 279.849 619.573 281.525 618.829C283.22 618.073 284.673 616.881 285.884 615.253C287.096 613.626 287.926 611.749 288.381 609.624C288.858 607.392 288.804 605.288 288.219 603.31C287.637 601.315 286.691 599.65 285.377 598.315C284.05 596.976 282.453 596.109 280.588 595.711L264.583 592.296Z" fill="white"/>
<path d="M315.286 650.63L307.949 650.556L308.53 592.722L333.307 592.97C335.856 592.996 338.178 593.552 340.278 594.635C342.393 595.718 344.23 597.153 345.793 598.934C347.339 600.715 348.536 602.705 349.389 604.902C350.226 607.116 350.633 609.362 350.61 611.645C350.584 614.302 350.057 616.82 349.034 619.201C348.008 621.582 346.583 623.607 344.753 625.276C342.907 626.929 340.764 628.073 338.318 628.706L352.091 651L343.793 650.916L330.803 630.012L315.493 629.859L315.286 650.63ZM315.8 599.313L315.561 623.342L333.073 623.518C335.088 623.539 336.844 623.002 338.339 621.907C339.85 620.812 341.029 619.347 341.877 617.511C342.74 615.66 343.182 613.679 343.203 611.57C343.223 609.399 342.761 607.399 341.81 605.576C340.843 603.737 339.576 602.273 338.009 601.178C336.458 600.069 334.728 599.504 332.821 599.485L315.8 599.313Z" fill="white"/>
<path d="M367.09 648.756L378.145 587.237L384.197 585.94L419.402 637.543L411.769 639.18L401.523 624.042L377.796 629.126L374.725 647.12L367.09 648.756ZM378.024 623.251L398.724 618.815L382.948 594.886L378.024 623.251Z" fill="white"/>
<path d="M441.32 622.251L470.752 609.866L473.279 615.874L437.086 631.105L414.652 577.795L450.176 562.845L452.705 568.853L423.943 580.957L431.208 598.222L456.211 587.702L458.583 593.34L433.582 603.861L441.32 622.251Z" fill="white"/>
<path d="M508.038 593.01L491.54 604.393L458.695 556.786L475.195 545.403C480.289 541.888 485.281 540.011 490.166 539.774C495.053 539.537 499.587 540.632 503.772 543.062C507.954 545.492 511.556 548.895 514.574 553.269C517.903 558.093 519.861 562.941 520.449 567.814C521.037 572.687 520.288 577.295 518.198 581.643C516.122 585.981 512.735 589.769 508.038 593.01ZM508.475 557.477C506.008 553.901 503.158 551.185 499.924 549.335C496.694 547.461 493.288 546.612 489.705 546.784C486.113 546.945 482.51 548.272 478.897 550.767L468.436 557.984L493.879 594.861L504.337 587.646C508.003 585.117 510.521 582.173 511.891 578.818C513.272 575.454 513.651 571.927 513.023 568.237C512.395 564.55 510.879 560.962 508.475 557.477Z" fill="white"/>
<path d="M551.42 557.777L546.087 562.817L506.364 520.777L511.698 515.738L551.42 557.777Z" fill="white"/>
<path d="M582.194 520.4C579.415 524.081 576.439 526.699 573.266 528.259C570.088 529.795 566.833 530.502 563.501 530.374C560.167 530.226 556.851 529.456 553.555 528.066C550.267 526.661 547.151 524.848 544.208 522.625L520.856 504.997L525.262 499.159L548.614 516.787C550.86 518.482 553.229 519.91 555.724 521.067C558.209 522.237 560.695 522.939 563.182 523.172C565.647 523.406 568.049 523.016 570.383 522C572.726 520.97 574.898 519.131 576.893 516.487C578.918 513.804 580.092 511.186 580.415 508.629C580.743 506.094 580.436 503.66 579.497 501.326C578.578 498.987 577.23 496.794 575.447 494.744C573.675 492.681 571.685 490.817 569.476 489.15L546.126 471.522L550.546 465.665L573.898 483.293C577.016 485.648 579.699 488.241 581.947 491.075C584.205 493.895 585.805 496.885 586.749 500.045C587.692 503.204 587.839 506.499 587.193 509.926C586.544 513.353 584.879 516.845 582.194 520.4Z" fill="white"/>
<path d="M630.477 425.019L627.624 431.755L586.974 414.536L610.819 445.335L609.064 449.481L570.322 453.845L610.97 471.066L608.108 477.822L554.852 455.263L557.87 448.139L600.62 443.51L574.24 409.498L577.221 402.46L630.477 425.019Z" fill="white"/>
<path d="M8.61646 333.063C8.61646 320.776 18.5768 310.813 30.8644 310.813C43.152 310.813 53.1146 320.773 53.1146 333.063C53.1146 345.351 43.1543 355.313 30.8644 355.311C18.5768 355.311 8.61413 345.351 8.61646 333.063Z" fill="white"/>
<path d="M599.422 333.063C599.422 320.776 609.382 310.813 621.67 310.813C633.958 310.813 643.92 320.773 643.92 333.063C643.92 345.351 633.96 355.313 621.67 355.311C609.382 355.311 599.42 345.351 599.422 333.063Z" fill="white"/>
</g>
</g>
</g>
</g>
</g>
</mask>
<g mask="url(#mask0_150_116)">
<path d="M651 0H0V651H651V0Z" fill="url(#paint0_linear_150_116)"/>
</g>
<mask id="mask1_150_116" style="mask-type:luminance" maskUnits="userSpaceOnUse" x="0" y="0" width="651" height="651">
<g clip-path="url(#clip10_150_116)">
<g clip-path="url(#clip11_150_116)">
<g clip-path="url(#clip12_150_116)">
<g clip-path="url(#clip13_150_116)">
<g clip-path="url(#clip14_150_116)">
<g clip-path="url(#clip15_150_116)">
<path d="M190.019 376.936L189.652 283.496L221.829 251.792L248.875 292.663L243.781 299.825V309.25L281.335 267.216L314.965 311.526L310.373 318.203L310.426 327.627L353.19 285.21L390.209 339.619L438.887 317.185L439.032 325.956L387.9 349.946L382.175 340.518L381.782 435.128L190.019 376.936ZM308.665 203.379L221.046 240.52L172.058 290.337L172.147 302.395L181.007 298.11L181.202 386.361L380.415 447.621L381.746 444.12L381.736 447.195L469.441 403.922L468.88 318.242L478.942 313.115L477.485 301.061L422.386 231.65L392.416 246.219L364.207 217.085L336.438 231.224L308.665 203.379Z" fill="white"/>
<path d="M226.209 333.376L226.272 396.46L200.792 386.447L201.344 325.262L226.209 333.376Z" fill="white"/>
</g>
</g>
</g>
</g>
</g>
</g>
</mask>
<g mask="url(#mask1_150_116)">
<path d="M651 0H0V651H651V0Z" fill="url(#paint1_linear_150_116)"/>
</g>
</g>
</g>
</g>
<defs>
<linearGradient id="paint0_linear_150_116" x1="0" y1="325.5" x2="651" y2="325.5" gradientUnits="userSpaceOnUse">
<stop stop-color="#FFA62E"/>
<stop offset="1" stop-color="#F71B3D"/>
</linearGradient>
<linearGradient id="paint1_linear_150_116" x1="0" y1="325.5" x2="651" y2="325.5" gradientUnits="userSpaceOnUse">
<stop stop-color="#FFA62E"/>
<stop offset="1" stop-color="#F71B3D"/>
</linearGradient>
<clipPath id="clip0_150_116">
<rect width="651" height="651" fill="white"/>
</clipPath>
<clipPath id="clip1_150_116">
<rect width="651" height="651" fill="white"/>
</clipPath>
<clipPath id="clip2_150_116">
<rect width="651" height="651" fill="white"/>
</clipPath>
<clipPath id="clip3_150_116">
<rect width="651" height="651" fill="white"/>
</clipPath>
<clipPath id="clip4_150_116">
<rect width="651" height="651" fill="white"/>
</clipPath>
<clipPath id="clip5_150_116">
<rect width="651" height="651" fill="white"/>
</clipPath>
<clipPath id="clip6_150_116">
<rect width="651" height="651" fill="white"/>
</clipPath>
<clipPath id="clip7_150_116">
<rect width="651" height="651" fill="white"/>
</clipPath>
<clipPath id="clip8_150_116">
<rect width="306.884" height="244.243" fill="white" transform="translate(172.058 203.379)"/>
</clipPath>
<clipPath id="clip9_150_116">
<rect width="306.884" height="244.243" fill="white" transform="translate(172.058 203.379)"/>
</clipPath>
<clipPath id="clip10_150_116">
<rect width="651" height="651" fill="white"/>
</clipPath>
<clipPath id="clip11_150_116">
<rect width="651" height="651" fill="white"/>
</clipPath>
<clipPath id="clip12_150_116">
<rect width="651" height="651" fill="white"/>
</clipPath>
<clipPath id="clip13_150_116">
<rect width="651" height="651" fill="white"/>
</clipPath>
<clipPath id="clip14_150_116">
<rect width="306.884" height="244.243" fill="white" transform="translate(172.058 203.379)"/>
</clipPath>
<clipPath id="clip15_150_116">
<rect width="306.884" height="244.243" fill="white" transform="translate(172.058 203.379)"/>
</clipPath>
</defs>
</svg>
